<svg width="22" height="21" viewBox="0 0 22 21" fill="none" xmlns="http://www.w3.org/2000/svg">
<path fill-rule="evenodd" clip-rule="evenodd" d="M16.7007 1.07175L3.70676 1.46708C2.18868 1.51327 0.995475 2.78136 1.04166 4.29944L1.20892 9.7969C1.22151 10.2109 1.56736 10.5363 1.98138 10.5237L5.22988 10.4249L5.46728 18.2281C5.51057 19.6509 7.1439 20.4295 8.27648 19.5673L8.44764 19.437C9.21082 18.8561 10.2676 18.8258 11.0684 19.3618C12.4 20.253 14.1633 20.1994 15.4383 19.2288C16.205 18.6451 17.2617 18.6111 18.0588 19.1446L18.2375 19.2643C19.4204 20.056 21.0034 19.1795 20.9601 17.7567L20.5631 4.70598C20.5001 2.63587 18.7709 1.00877 16.7007 1.07175ZM14.5297 18.0353C13.7647 18.6177 12.7017 18.65 11.9028 18.1152C10.573 17.2252 8.8158 17.2716 7.53907 18.2435L7.3679 18.3738C7.20611 18.497 6.97277 18.3857 6.96659 18.1825L6.53912 4.13218C6.52543 3.68228 6.40442 3.26091 6.20139 2.89188L16.7464 2.57106C17.9884 2.53327 19.026 3.50953 19.0637 4.75159L19.4608 17.8024C19.467 18.0056 19.2409 18.1308 19.0719 18.0177L18.8931 17.8981C17.5596 17.0056 15.8028 17.0661 14.5297 18.0353ZM5.03981 4.1778L5.18426 8.9256L2.68542 9.00163L2.54097 4.25383C2.51997 3.56379 3.06234 2.98738 3.75238 2.96639C4.44241 2.9454 5.01882 3.48776 5.03981 4.1778Z" fill="white"/>
<path d="M13 13.9995L13 7.99951" stroke="white" stroke-width="1.5" stroke-linecap="round"/>
<path d="M10 10.9995L16 10.9995" stroke="white" stroke-width="1.5" stroke-linecap="round"/>
</svg>
